<?xml version="1.0" encoding="UTF-8" standalone="no"?><!-- Generator: Gravit.io --><svg xmlns="http://www.w3.org/2000/svg" xmlns:xlink="http://www.w3.org/1999/xlink" style="isolation:isolate" viewBox="0 0 48 48" width="48pt" height="48pt"><defs><clipPath id="_clipPath_qPS3DhgUEays7aTXO5fQM5vedKMCVT8p"><rect width="48" height="48"/></clipPath></defs><g clip-path="url(#_clipPath_qPS3DhgUEays7aTXO5fQM5vedKMCVT8p)"><g><path d="M 16.745 16.55 L 31.255 16.55 C 36.672 16.55 41.07 20.949 41.07 26.366 L 41.07 36.544 C 41.07 41.961 36.672 46.36 31.255 46.36 L 16.745 46.36 C 11.328 46.36 6.93 41.961 6.93 36.544 L 6.93 26.366 C 6.93 20.949 11.328 16.55 16.745 16.55 Z" style="stroke:none;fill:#28ACD9;stroke-miterlimit:10;"/><rect x="7.188" y="34.892" width="33.609" height="4.013" transform="matrix(1,0,0,1,0,0)" fill="rgb(0,9,25)"/><path d=" M 34.045 11.388 L 34.045 1.642 M 13.494 11.388 L 13.494 1.642 M 14.864 1.642 L 31.305 1.642" fill-rule="evenodd" fill="none" vector-effect="non-scaling-stroke" stroke-width="2.692" stroke="rgb(40,172,217)" stroke-linejoin="miter" stroke-linecap="square" stroke-miterlimit="3"/><rect x="6.928" y="16.547" width="34.144" height="14.905" transform="matrix(1,0,0,1,0,0)" fill="rgb(40,172,217)"/><ellipse vector-effect="non-scaling-stroke" cx="23.636763502455015" cy="34.89215293318637" rx="5.659224631751201" ry="5.442672668801528" fill="rgb(0,9,25)"/><polygon points="23.637,37.796,18.489,22.603,28.785,22.603" fill="rgb(0,9,25)"/></g></g></svg>