<?xml version="1.0" encoding="UTF-8" standalone="no"?><!-- Generator: Gravit.io --><svg xmlns="http://www.w3.org/2000/svg" xmlns:xlink="http://www.w3.org/1999/xlink" style="isolation:isolate" viewBox="0 0 48 48" width="48pt" height="48pt"><defs><clipPath id="_clipPath_A6aU3wLdy0U4gElAR9EC3ruy6fzjZlnv"><rect width="48" height="48"/></clipPath></defs><g clip-path="url(#_clipPath_A6aU3wLdy0U4gElAR9EC3ruy6fzjZlnv)"><g><g><path d="M 23.525 0 L 24.475 0 C 37.459 0 48 10.541 48 23.525 L 48 24.475 C 48 37.459 37.459 48 24.475 48 L 23.525 48 C 10.541 48 0 37.459 0 24.475 L 0 23.525 C 0 10.541 10.541 0 23.525 0 Z" style="stroke:none;fill:#28ACD9;stroke-miterlimit:10;"/></g><g><path d="M 17.233 26.14 L 30.767 26.14 C 32.894 26.14 34.62 27.867 34.62 29.995 L 34.62 30.365 C 34.62 32.493 32.894 34.22 30.767 34.22 L 17.233 34.22 C 15.106 34.22 13.38 32.493 13.38 30.365 L 13.38 29.995 C 13.38 27.867 15.106 26.14 17.233 26.14 Z" style="stroke:none;fill:#FFFFFF;stroke-miterlimit:10;"/><path d="M 23.883 32.94 L 23.977 32.94 C 25.265 32.94 26.31 33.987 26.31 35.276 L 26.31 35.314 C 26.31 36.603 25.265 37.65 23.977 37.65 L 23.883 37.65 C 22.595 37.65 21.55 36.603 21.55 35.314 L 21.55 35.276 C 21.55 33.987 22.595 32.94 23.883 32.94 Z" style="stroke:none;fill:#FFFFFF;stroke-miterlimit:10;"/><ellipse vector-effect="non-scaling-stroke" cx="24.000000000000664" cy="14.954308660733584" rx="5.439275586165241" ry="5.542543954851342" fill="rgb(255,255,255)"/><polygon points="24,16.105,34.615,30.18,13.385,30.18" fill="rgb(255,255,255)"/><rect x="18.612" y="15.059" width="10.776" height="10.353" transform="matrix(1,0,0,1,0,0)" fill="rgb(255,255,255)"/></g></g></g></svg>