<?xml version="1.0" encoding="UTF-8" standalone="no"?><!-- Generator: Gravit.io --><svg xmlns="http://www.w3.org/2000/svg" xmlns:xlink="http://www.w3.org/1999/xlink" style="isolation:isolate" viewBox="0 0 48 48" width="48pt" height="48pt"><defs><clipPath id="_clipPath_jEhYdBqOS9gxTv85QKndYP5Q0UScL4bp"><rect width="48" height="48"/></clipPath></defs><g clip-path="url(#_clipPath_jEhYdBqOS9gxTv85QKndYP5Q0UScL4bp)"><path d=" M 4.276 24 C 4.276 21.601 6.224 19.654 8.622 19.654 C 11.021 19.654 12.968 21.601 12.968 24 C 12.968 26.399 11.021 28.346 8.622 28.346 C 6.224 28.346 4.276 26.399 4.276 24 L 4.276 24 Z  M 19.654 24 C 19.654 21.601 21.601 19.654 24 19.654 C 26.399 19.654 28.346 21.601 28.346 24 C 28.346 26.399 26.399 28.346 24 28.346 C 21.601 28.346 19.654 26.399 19.654 24 L 19.654 24 Z  M 35.032 24 C 35.032 21.601 36.979 19.654 39.378 19.654 C 41.776 19.654 43.724 21.601 43.724 24 C 43.724 26.399 41.776 28.346 39.378 28.346 C 36.979 28.346 35.032 26.399 35.032 24 Z " fill-rule="evenodd" fill="rgb(40,172,217)"/></g></svg>